<svg xmlns="http://www.w3.org/2000/svg" xmlns:xlink="http://www.w3.org/1999/xlink" width="25pt" height="25pt" viewBox="0 0 25 25" version="1.1">
<g id="surface1">
<path style=" stroke:none;fill-rule:nonzero;fill:rgb(0%,0%,0%);fill-opacity:1;" d="M 15.066406 11.808594 L 15.066406 13.460938 L 10.984375 13.460938 C 11.285156 14.320312 11.433594 15.019531 11.433594 15.558594 L 11.433594 15.589844 C 11.433594 16.691406 10.855469 17.929688 9.695312 19.308594 C 9.234375 19.871094 8.636719 20.519531 7.894531 21.257812 C 9.074219 20.480469 10.296875 20.089844 11.554688 20.089844 C 12.253906 20.089844 13.074219 20.238281 14.015625 20.539062 C 15.113281 20.859375 15.90625 21.019531 16.386719 21.019531 C 17.183594 21.019531 18.015625 20.71875 18.875 20.121094 L 20.136719 22.101562 C 18.996094 23.21875 17.683594 23.78125 16.203125 23.78125 C 15.324219 23.78125 14.054688 23.5 12.394531 22.941406 L 11.824219 22.730469 C 11.164062 22.507812 10.503906 22.398438 9.84375 22.398438 C 8.785156 22.398438 7.695312 22.769531 6.574219 23.511719 L 5.136719 21.53125 C 7.175781 19.769531 8.375 18.257812 8.734375 17 C 8.835938 16.640625 8.886719 16.257812 8.886719 15.859375 C 8.886719 15.859375 8.886719 15.851562 8.886719 15.828125 L 8.886719 15.800781 C 8.886719 15.039062 8.644531 14.257812 8.164062 13.460938 L 4.863281 13.460938 L 4.863281 11.808594 L 7.292969 11.808594 C 6.375 10.289062 5.863281 9.199219 5.765625 8.539062 C 5.726562 8.359375 5.703125 8.160156 5.703125 7.941406 L 5.703125 7.640625 C 5.703125 5.660156 6.503906 4.039062 8.105469 2.78125 C 9.425781 1.738281 10.996094 1.21875 12.816406 1.21875 L 12.84375 1.21875 C 15.105469 1.21875 16.855469 1.960938 18.09375 3.441406 L 18.605469 4.191406 C 19.144531 5.109375 19.425781 6.441406 19.445312 8.179688 L 16.804688 8.179688 C 16.726562 5.101562 15.363281 3.558594 12.726562 3.558594 C 10.945312 3.558594 9.695312 4.191406 8.976562 5.449219 C 8.65625 6.011719 8.496094 6.648438 8.496094 7.371094 L 8.496094 7.398438 C 8.496094 8.160156 8.714844 8.960938 9.15625 9.800781 L 9.15625 9.832031 L 9.183594 9.859375 C 9.265625 10.039062 9.375 10.257812 9.515625 10.519531 L 9.785156 10.96875 L 10.265625 11.808594 Z M 15.066406 11.808594 "/>
</g>
</svg>